<mxfile host="app.diagrams.net" modified="2025-08-01T00:00:00.000Z" agent="Claude" version="22.1.16" etag="abc123" type="device">
  <diagram name="Fleet System Sequence" id="sequence-diagram">
    <mxGraphModel dx="1422" dy="842" grid="1" gridSize="10" guides="1" tooltips="1" connect="1" arrows="1" fold="1" page="1" pageScale="1" pageWidth="1200" pageHeight="1600" math="0" shadow="0">
      <root>
        <mxCell id="0" />
        <mxCell id="1" parent="0" />
        
        <!-- Title -->
        <mxCell id="2" value="Fleet Management System - Delivery Sequence Diagram" style="text;html=1;strokeColor=none;fillColor=none;align=center;verticalAlign=middle;whiteSpace=wrap;rounded=0;fontSize=16;fontStyle=1;" parent="1" vertex="1">
          <mxGeometry x="300" y="10" width="400" height="30" as="geometry" />
        </mxCell>
        
        <!-- Actors/Components -->
        <mxCell id="3" value="Web Client" style="shape=umlActor;verticalLabelPosition=bottom;verticalAlign=top;html=1;outlineConnect=0;fillColor=#d5e8d4;strokeColor=#82b366;" parent="1" vertex="1">
          <mxGeometry x="50" y="60" width="30" height="60" as="geometry" />
        </mxCell>
        
        <mxCell id="4" value="Web Server&lt;br&gt;(Flask)" style="rounded=1;whiteSpace=wrap;html=1;fillColor=#dae8fc;strokeColor=#6c8ebf;" parent="1" vertex="1">
          <mxGeometry x="180" y="60" width="100" height="60" as="geometry" />
        </mxCell>
        
        <mxCell id="5" value="Fleet Manager&lt;br&gt;(ROS Node)" style="rounded=1;whiteSpace=wrap;html=1;fillColor=#fff2cc;strokeColor=#d6b656;" parent="1" vertex="1">
          <mxGeometry x="360" y="60" width="100" height="60" as="geometry" />
        </mxCell>
        
        <mxCell id="6" value="Robot Node&lt;br&gt;(FSM + Nav)" style="rounded=1;whiteSpace=wrap;html=1;fillColor=#f8cecc;strokeColor=#b85450;" parent="1" vertex="1">
          <mxGeometry x="540" y="60" width="100" height="60" as="geometry" />
        </mxCell>
        
        <mxCell id="7" value="Robot Hardware&lt;br&gt;(Arm + Navigation)" style="rounded=1;whiteSpace=wrap;html=1;fillColor=#e1d5e7;strokeColor=#9673a6;" parent="1" vertex="1">
          <mxGeometry x="720" y="60" width="100" height="60" as="geometry" />
        </mxCell>
        
        <mxCell id="8" value="Database&lt;br&gt;(PostgreSQL)" style="shape=cylinder3;whiteSpace=wrap;html=1;boundedLbl=1;backgroundOutline=1;size=15;fillColor=#f5f5f5;strokeColor=#666666;fontColor=#333333;" parent="1" vertex="1">
          <mxGeometry x="900" y="60" width="80" height="60" as="geometry" />
        </mxCell>
        
        <!-- Lifelines -->
        <mxCell id="9" value="" style="html=1;points=[];perimeter=orthogonalPerimeter;outlineConnect=0;targetShapes=umlLifeline;portConstraint=eastwest;newEdgeStyle={&quot;edgeStyle&quot;:&quot;elbowEdgeStyle&quot;,&quot;elbow&quot;:&quot;vertical&quot;,&quot;curved&quot;:0,&quot;rounded&quot;:0};" parent="1" vertex="1">
          <mxGeometry x="60" y="150" width="10" height="800" as="geometry" />
        </mxCell>
        
        <mxCell id="10" value="" style="html=1;points=[];perimeter=orthogonalPerimeter;outlineConnect=0;targetShapes=umlLifeline;portConstraint=eastwest;newEdgeStyle={&quot;edgeStyle&quot;:&quot;elbowEdgeStyle&quot;,&quot;elbow&quot;:&quot;vertical&quot;,&quot;curved&quot;:0,&quot;rounded&quot;:0};" parent="1" vertex="1">
          <mxGeometry x="225" y="150" width="10" height="800" as="geometry" />
        </mxCell>
        
        <mxCell id="11" value="" style="html=1;points=[];perimeter=orthogonalPerimeter;outlineConnect=0;targetShapes=umlLifeline;portConstraint=eastwest;newEdgeStyle={&quot;edgeStyle&quot;:&quot;elbowEdgeStyle&quot;,&quot;elbow&quot;:&quot;vertical&quot;,&quot;curved&quot;:0,&quot;rounded&quot;:0};" parent="1" vertex="1">
          <mxGeometry x="405" y="150" width="10" height="800" as="geometry" />
        </mxCell>
        
        <mxCell id="12" value="" style="html=1;points=[];perimeter=orthogonalPerimeter;outlineConnect=0;targetShapes=umlLifeline;portConstraint=eastwest;newEdgeStyle={&quot;edgeStyle&quot;:&quot;elbowEdgeStyle&quot;,&quot;elbow&quot;:&quot;vertical&quot;,&quot;curved&quot;:0,&quot;rounded&quot;:0};" parent="1" vertex="1">
          <mxGeometry x="585" y="150" width="10" height="800" as="geometry" />
        </mxCell>
        
        <mxCell id="13" value="" style="html=1;points=[];perimeter=orthogonalPerimeter;outlineConnect=0;targetShapes=umlLifeline;portConstraint=eastwest;newEdgeStyle={&quot;edgeStyle&quot;:&quot;elbowEdgeStyle&quot;,&quot;elbow&quot;:&quot;vertical&quot;,&quot;curved&quot;:0,&quot;rounded&quot;:0};" parent="1" vertex="1">
          <mxGeometry x="765" y="150" width="10" height="800" as="geometry" />
        </mxCell>
        
        <mxCell id="14" value="" style="html=1;points=[];perimeter=orthogonalPerimeter;outlineConnect=0;targetShapes=umlLifeline;portConstraint=eastwest;newEdgeStyle={&quot;edgeStyle&quot;:&quot;elbowEdgeStyle&quot;,&quot;elbow&quot;:&quot;vertical&quot;,&quot;curved&quot;:0,&quot;rounded&quot;:0};" parent="1" vertex="1">
          <mxGeometry x="935" y="150" width="10" height="800" as="geometry" />
        </mxCell>
        
        <!-- Activation Boxes -->
        <!-- Web Client Activation -->
        <mxCell id="43" value="" style="html=1;points=[];perimeter=orthogonalPerimeter;outlineConnect=0;targetShapes=umlLifeline;portConstraint=eastwest;fillColor=#d5e8d4;strokeColor=#82b366;" parent="1" vertex="1">
          <mxGeometry x="60" y="210" width="10" height="130" as="geometry" />
        </mxCell>
        
        <mxCell id="44" value="" style="html=1;points=[];perimeter=orthogonalPerimeter;outlineConnect=0;targetShapes=umlLifeline;portConstraint=eastwest;fillColor=#d5e8d4;strokeColor=#82b366;" parent="1" vertex="1">
          <mxGeometry x="60" y="730" width="10" height="160" as="geometry" />
        </mxCell>
        
        <!-- Web Server Activation -->
        <mxCell id="45" value="" style="html=1;points=[];perimeter=orthogonalPerimeter;outlineConnect=0;targetShapes=umlLifeline;portConstraint=eastwest;fillColor=#dae8fc;strokeColor=#6c8ebf;" parent="1" vertex="1">
          <mxGeometry x="225" y="210" width="10" height="680" as="geometry" />
        </mxCell>
        
        <!-- Fleet Manager Activation -->
        <mxCell id="46" value="" style="html=1;points=[];perimeter=orthogonalPerimeter;outlineConnect=0;targetShapes=umlLifeline;portConstraint=eastwest;fillColor=#fff2cc;strokeColor=#d6b656;" parent="1" vertex="1">
          <mxGeometry x="405" y="280" width="10" height="610" as="geometry" />
        </mxCell>
        
        <!-- Robot Node Activation -->
        <mxCell id="47" value="" style="html=1;points=[];perimeter=orthogonalPerimeter;outlineConnect=0;targetShapes=umlLifeline;portConstraint=eastwest;fillColor=#f8cecc;strokeColor=#b85450;" parent="1" vertex="1">
          <mxGeometry x="585" y="450" width="10" height="420" as="geometry" />
        </mxCell>
        
        <!-- Robot Hardware Activation -->
        <mxCell id="48" value="" style="html=1;points=[];perimeter=orthogonalPerimeter;outlineConnect=0;targetShapes=umlLifeline;portConstraint=eastwest;fillColor=#e1d5e7;strokeColor=#9673a6;" parent="1" vertex="1">
          <mxGeometry x="765" y="550" width="10" height="60" as="geometry" />
        </mxCell>
        
        <mxCell id="49" value="" style="html=1;points=[];perimeter=orthogonalPerimeter;outlineConnect=0;targetShapes=umlLifeline;portConstraint=eastwest;fillColor=#e1d5e7;strokeColor=#9673a6;" parent="1" vertex="1">
          <mxGeometry x="765" y="590" width="10" height="20" as="geometry" />
        </mxCell>
        
        <mxCell id="50" value="" style="html=1;points=[];perimeter=orthogonalPerimeter;outlineConnect=0;targetShapes=umlLifeline;portConstraint=eastwest;fillColor=#e1d5e7;strokeColor=#9673a6;" parent="1" vertex="1">
          <mxGeometry x="765" y="630" width="10" height="20" as="geometry" />
        </mxCell>
        
        <mxCell id="51" value="" style="html=1;points=[];perimeter=orthogonalPerimeter;outlineConnect=0;targetShapes=umlLifeline;portConstraint=eastwest;fillColor=#e1d5e7;strokeColor=#9673a6;" parent="1" vertex="1">
          <mxGeometry x="765" y="830" width="10" height="20" as="geometry" />
        </mxCell>
        
        <!-- Database Activation -->
        <mxCell id="52" value="" style="html=1;points=[];perimeter=orthogonalPerimeter;outlineConnect=0;targetShapes=umlLifeline;portConstraint=eastwest;fillColor=#f5f5f5;strokeColor=#666666;" parent="1" vertex="1">
          <mxGeometry x="935" y="230" width="10" height="30" as="geometry" />
        </mxCell>
        
        <mxCell id="53" value="" style="html=1;points=[];perimeter=orthogonalPerimeter;outlineConnect=0;targetShapes=umlLifeline;portConstraint=eastwest;fillColor=#f5f5f5;strokeColor=#666666;" parent="1" vertex="1">
          <mxGeometry x="935" y="400" width="10" height="40" as="geometry" />
        </mxCell>
        
        <mxCell id="54" value="" style="html=1;points=[];perimeter=orthogonalPerimeter;outlineConnect=0;targetShapes=umlLifeline;portConstraint=eastwest;fillColor=#f5f5f5;strokeColor=#666666;" parent="1" vertex="1">
          <mxGeometry x="935" y="770" width="10" height="20" as="geometry" />
        </mxCell>
        
        <!-- Notes -->
        <mxCell id="15" value="주문 요청" style="shape=note;whiteSpace=wrap;html=1;backgroundOutline=1;fillColor=#fff2cc;strokeColor=#d6b656;fontStyle=1;" parent="1" vertex="1">
          <mxGeometry x="50" y="170" width="80" height="30" as="geometry" />
        </mxCell>
        
        <!-- Sequence Arrows -->
        <mxCell id="16" value="POST /order" style="html=1;verticalAlign=bottom;endArrow=block;curved=0;rounded=0;" parent="1" edge="1">
          <mxGeometry width="80" relative="1" as="geometry">
            <mxPoint x="70" y="220" as="sourcePoint" />
            <mxPoint x="225" y="220" as="targetPoint" />
          </mxGeometry>
        </mxCell>
        
        <mxCell id="17" value="create_task()" style="html=1;verticalAlign=bottom;endArrow=block;curved=0;rounded=0;" parent="1" edge="1">
          <mxGeometry width="80" relative="1" as="geometry">
            <mxPoint x="235" y="240" as="sourcePoint" />
            <mxPoint x="935" y="240" as="targetPoint" />
          </mxGeometry>
        </mxCell>
        
        <mxCell id="18" value="task_id" style="html=1;verticalAlign=bottom;endArrow=open;dashed=1;endSize=8;curved=0;rounded=0;" parent="1" edge="1">
          <mxGeometry relative="1" as="geometry">
            <mxPoint x="935" y="260" as="sourcePoint" />
            <mxPoint x="235" y="260" as="targetPoint" />
          </mxGeometry>
        </mxCell>
        
        <mxCell id="19" value="send_delivery_task()&lt;br&gt;[/fleet/task_request]" style="html=1;verticalAlign=bottom;endArrow=block;curved=0;rounded=0;" parent="1" edge="1">
          <mxGeometry width="80" relative="1" as="geometry">
            <mxPoint x="235" y="290" as="sourcePoint" />
            <mxPoint x="405" y="290" as="targetPoint" />
          </mxGeometry>
        </mxCell>
        
        <mxCell id="20" value="TaskResponse&lt;br&gt;[/fleet/task_response]" style="html=1;verticalAlign=bottom;endArrow=open;dashed=1;endSize=8;curved=0;rounded=0;" parent="1" edge="1">
          <mxGeometry relative="1" as="geometry">
            <mxPoint x="405" y="310" as="sourcePoint" />
            <mxPoint x="235" y="310" as="targetPoint" />
          </mxGeometry>
        </mxCell>
        
        <mxCell id="21" value="JSON Response" style="html=1;verticalAlign=bottom;endArrow=open;dashed=1;endSize=8;curved=0;rounded=0;" parent="1" edge="1">
          <mxGeometry relative="1" as="geometry">
            <mxPoint x="225" y="330" as="sourcePoint" />
            <mxPoint x="70" y="330" as="targetPoint" />
          </mxGeometry>
        </mxCell>
        
        <mxCell id="22" value="작업 할당" style="shape=note;whiteSpace=wrap;html=1;backgroundOutline=1;fillColor=#fff2cc;strokeColor=#d6b656;fontStyle=1;" parent="1" vertex="1">
          <mxGeometry x="360" y="360" width="80" height="30" as="geometry" />
        </mxCell>
        
        <mxCell id="23" value="get_next_pending_task()" style="html=1;verticalAlign=bottom;endArrow=block;curved=0;rounded=0;" parent="1" edge="1">
          <mxGeometry width="80" relative="1" as="geometry">
            <mxPoint x="415" y="410" as="sourcePoint" />
            <mxPoint x="935" y="410" as="targetPoint" />
          </mxGeometry>
        </mxCell>
        
        <mxCell id="24" value="task_info" style="html=1;verticalAlign=bottom;endArrow=open;dashed=1;endSize=8;curved=0;rounded=0;" parent="1" edge="1">
          <mxGeometry relative="1" as="geometry">
            <mxPoint x="935" y="430" as="sourcePoint" />
            <mxPoint x="415" y="430" as="targetPoint" />
          </mxGeometry>
        </mxCell>
        
        <mxCell id="25" value="order command&lt;br&gt;[/{robot_id}/user_cmd]" style="html=1;verticalAlign=bottom;endArrow=block;curved=0;rounded=0;" parent="1" edge="1">
          <mxGeometry width="80" relative="1" as="geometry">
            <mxPoint x="415" y="460" as="sourcePoint" />
            <mxPoint x="585" y="460" as="targetPoint" />
          </mxGeometry>
        </mxCell>
        
        <mxCell id="26" value="로봇 실행" style="shape=note;whiteSpace=wrap;html=1;backgroundOutline=1;fillColor=#f8cecc;strokeColor=#b85450;fontStyle=1;" parent="1" vertex="1">
          <mxGeometry x="540" y="490" width="80" height="30" as="geometry" />
        </mxCell>
        
        <mxCell id="27" value="status: moving_to_arm" style="html=1;verticalAlign=bottom;endArrow=block;curved=0;rounded=0;" parent="1" edge="1">
          <mxGeometry width="80" relative="1" as="geometry">
            <mxPoint x="585" y="540" as="sourcePoint" />
            <mxPoint x="415" y="540" as="targetPoint" />
          </mxGeometry>
        </mxCell>
        
        <mxCell id="28" value="navigate_to_waypoint(ARM)" style="html=1;verticalAlign=bottom;endArrow=block;curved=0;rounded=0;" parent="1" edge="1">
          <mxGeometry width="80" relative="1" as="geometry">
            <mxPoint x="595" y="560" as="sourcePoint" />
            <mxPoint x="765" y="560" as="targetPoint" />
          </mxGeometry>
        </mxCell>
        
        <mxCell id="29" value="status: picking" style="html=1;verticalAlign=bottom;endArrow=block;curved=0;rounded=0;" parent="1" edge="1">
          <mxGeometry width="80" relative="1" as="geometry">
            <mxPoint x="585" y="580" as="sourcePoint" />
            <mxPoint x="415" y="580" as="targetPoint" />
          </mxGeometry>
        </mxCell>
        
        <mxCell id="30" value="arm_pick() + place_on_robot()" style="html=1;verticalAlign=bottom;endArrow=block;curved=0;rounded=0;" parent="1" edge="1">
          <mxGeometry width="80" relative="1" as="geometry">
            <mxPoint x="595" y="600" as="sourcePoint" />
            <mxPoint x="765" y="600" as="targetPoint" />
          </mxGeometry>
        </mxCell>
        
        <mxCell id="31" value="status: moving_to_user" style="html=1;verticalAlign=bottom;endArrow=block;curved=0;rounded=0;" parent="1" edge="1">
          <mxGeometry width="80" relative="1" as="geometry">
            <mxPoint x="585" y="620" as="sourcePoint" />
            <mxPoint x="415" y="620" as="targetPoint" />
          </mxGeometry>
        </mxCell>
        
        <mxCell id="32" value="navigate_to_waypoint(USER)" style="html=1;verticalAlign=bottom;endArrow=block;curved=0;rounded=0;" parent="1" edge="1">
          <mxGeometry width="80" relative="1" as="geometry">
            <mxPoint x="595" y="640" as="sourcePoint" />
            <mxPoint x="765" y="640" as="targetPoint" />
          </mxGeometry>
        </mxCell>
        
        <mxCell id="33" value="status: waiting_confirm" style="html=1;verticalAlign=bottom;endArrow=block;curved=0;rounded=0;" parent="1" edge="1">
          <mxGeometry width="80" relative="1" as="geometry">
            <mxPoint x="585" y="660" as="sourcePoint" />
            <mxPoint x="415" y="660" as="targetPoint" />
          </mxGeometry>
        </mxCell>
        
        <mxCell id="34" value="수령 확인" style="shape=note;whiteSpace=wrap;html=1;backgroundOutline=1;fillColor=#dae8fc;strokeColor=#6c8ebf;fontStyle=1;" parent="1" vertex="1">
          <mxGeometry x="180" y="690" width="80" height="30" as="geometry" />
        </mxCell>
        
        <mxCell id="35" value="POST /confirm" style="html=1;verticalAlign=bottom;endArrow=block;curved=0;rounded=0;" parent="1" edge="1">
          <mxGeometry width="80" relative="1" as="geometry">
            <mxPoint x="70" y="740" as="sourcePoint" />
            <mxPoint x="225" y="740" as="targetPoint" />
          </mxGeometry>
        </mxCell>
        
        <mxCell id="36" value="send_confirm_request()&lt;br&gt;[/fleet/confirm_request]" style="html=1;verticalAlign=bottom;endArrow=block;curved=0;rounded=0;" parent="1" edge="1">
          <mxGeometry width="80" relative="1" as="geometry">
            <mxPoint x="235" y="760" as="sourcePoint" />
            <mxPoint x="405" y="760" as="targetPoint" />
          </mxGeometry>
        </mxCell>
        
        <mxCell id="37" value="complete_task()" style="html=1;verticalAlign=bottom;endArrow=block;curved=0;rounded=0;" parent="1" edge="1">
          <mxGeometry width="80" relative="1" as="geometry">
            <mxPoint x="415" y="780" as="sourcePoint" />
            <mxPoint x="935" y="780" as="targetPoint" />
          </mxGeometry>
        </mxCell>
        
        <mxCell id="38" value="confirm command" style="html=1;verticalAlign=bottom;endArrow=block;curved=0;rounded=0;" parent="1" edge="1">
          <mxGeometry width="80" relative="1" as="geometry">
            <mxPoint x="415" y="800" as="sourcePoint" />
            <mxPoint x="585" y="800" as="targetPoint" />
          </mxGeometry>
        </mxCell>
        
        <mxCell id="39" value="status: returning_to_dock" style="html=1;verticalAlign=bottom;endArrow=block;curved=0;rounded=0;" parent="1" edge="1">
          <mxGeometry width="80" relative="1" as="geometry">
            <mxPoint x="585" y="820" as="sourcePoint" />
            <mxPoint x="415" y="820" as="targetPoint" />
          </mxGeometry>
        </mxCell>
        
        <mxCell id="40" value="navigate_to_waypoint(DOCK)" style="html=1;verticalAlign=bottom;endArrow=block;curved=0;rounded=0;" parent="1" edge="1">
          <mxGeometry width="80" relative="1" as="geometry">
            <mxPoint x="595" y="840" as="sourcePoint" />
            <mxPoint x="765" y="840" as="targetPoint" />
          </mxGeometry>
        </mxCell>
        
        <mxCell id="41" value="status: idle" style="html=1;verticalAlign=bottom;endArrow=block;curved=0;rounded=0;" parent="1" edge="1">
          <mxGeometry width="80" relative="1" as="geometry">
            <mxPoint x="585" y="860" as="sourcePoint" />
            <mxPoint x="415" y="860" as="targetPoint" />
          </mxGeometry>
        </mxCell>
        
        <mxCell id="42" value="Response" style="html=1;verticalAlign=bottom;endArrow=open;dashed=1;endSize=8;curved=0;rounded=0;" parent="1" edge="1">
          <mxGeometry relative="1" as="geometry">
            <mxPoint x="225" y="880" as="sourcePoint" />
            <mxPoint x="70" y="880" as="targetPoint" />
          </mxGeometry>
        </mxCell>
        
        <!-- Group Rectangles for clarity -->
        <mxCell id="55" value="" style="rounded=1;whiteSpace=wrap;html=1;fillColor=none;strokeColor=#d6b656;strokeWidth=2;dashed=1;dashPattern=5 5;" parent="1" vertex="1">
          <mxGeometry x="40" y="200" width="960" height="150" as="geometry" />
        </mxCell>
        
        <mxCell id="56" value="주문 처리 단계" style="text;html=1;strokeColor=none;fillColor=none;align=left;verticalAlign=top;whiteSpace=wrap;rounded=0;fontSize=12;fontStyle=2;fontColor=#d6b656;" parent="1" vertex="1">
          <mxGeometry x="50" y="205" width="100" height="20" as="geometry" />
        </mxCell>
        
        <mxCell id="57" value="" style="rounded=1;whiteSpace=wrap;html=1;fillColor=none;strokeColor=#b85450;strokeWidth=2;dashed=1;dashPattern=5 5;" parent="1" vertex="1">
          <mxGeometry x="350" y="390" width="650" height="290" as="geometry" />
        </mxCell>
        
        <mxCell id="58" value="작업 할당 및 로봇 실행 단계" style="text;html=1;strokeColor=none;fillColor=none;align=left;verticalAlign=top;whiteSpace=wrap;rounded=0;fontSize=12;fontStyle=2;fontColor=#b85450;" parent="1" vertex="1">
          <mxGeometry x="360" y="395" width="180" height="20" as="geometry" />
        </mxCell>
        
        <mxCell id="59" value="" style="rounded=1;whiteSpace=wrap;html=1;fillColor=none;strokeColor=#6c8ebf;strokeWidth=2;dashed=1;dashPattern=5 5;" parent="1" vertex="1">
          <mxGeometry x="40" y="720" width="960" height="180" as="geometry" />
        </mxCell>
        
        <mxCell id="60" value="수령 확인 및 완료 단계" style="text;html=1;strokeColor=none;fillColor=none;align=left;verticalAlign=top;whiteSpace=wrap;rounded=0;fontSize=12;fontStyle=2;fontColor=#6c8ebf;" parent="1" vertex="1">
          <mxGeometry x="50" y="725" width="150" height="20" as="geometry" />
        </mxCell>
        
        <!-- Additional FSM State Notes -->
        <mxCell id="61" value="FSM States:&#xa;IDLE → GO_TO_ARM → PICK → GO_TO_USER → WAIT_CONFIRM → GO_DOCK → IDLE" style="shape=note;whiteSpace=wrap;html=1;backgroundOutline=1;fillColor=#f8cecc;strokeColor=#b85450;fontStyle=0;fontSize=10;" parent="1" vertex="1">
          <mxGeometry x="540" y="910" width="200" height="50" as="geometry" />
        </mxCell>
        
        <!-- ROS Topics Note -->
        <mxCell id="62" value="ROS Topics:&#xa;• /fleet/task_request&#xa;• /fleet/task_response&#xa;• /fleet/confirm_request&#xa;• /{robot_id}/user_cmd&#xa;• /{robot_id}/status" style="shape=note;whiteSpace=wrap;html=1;backgroundOutline=1;fillColor=#fff2cc;strokeColor=#d6b656;fontStyle=0;fontSize=10;" parent="1" vertex="1">
          <mxGeometry x="800" y="910" width="150" height="80" as="geometry" />
        </mxCell>
        
        <!-- Database Operations Note -->
        <mxCell id="63" value="DB Operations:&#xa;• create_task()&#xa;• get_next_pending_task()&#xa;• update_task_status()&#xa;• complete_task()" style="shape=note;whiteSpace=wrap;html=1;backgroundOutline=1;fillColor=#f5f5f5;strokeColor=#666666;fontStyle=0;fontSize=10;" parent="1" vertex="1">
          <mxGeometry x="280" y="910" width="150" height="70" as="geometry" />
        </mxCell>
        
        <!-- Legend -->
        <mxCell id="64" value="범례 (Legend)" style="text;html=1;strokeColor=none;fillColor=none;align=center;verticalAlign=middle;whiteSpace=wrap;rounded=0;fontSize=12;fontStyle=1;" parent="1" vertex="1">
          <mxGeometry x="50" y="910" width="100" height="20" as="geometry" />
        </mxCell>
        
        <mxCell id="65" value="——→ 동기 호출 (Synchronous)" style="html=1;verticalAlign=bottom;endArrow=block;curved=0;rounded=0;fontSize=10;" parent="1" edge="1">
          <mxGeometry width="80" relative="1" as="geometry">
            <mxPoint x="50" y="940" as="sourcePoint" />
            <mxPoint x="150" y="940" as="targetPoint" />
          </mxGeometry>
        </mxCell>
        
        <mxCell id="66" value="- - → 응답 (Response)" style="html=1;verticalAlign=bottom;endArrow=open;dashed=1;endSize=8;curved=0;rounded=0;fontSize=10;" parent="1" edge="1">
          <mxGeometry relative="1" as="geometry">
            <mxPoint x="150" y="960" as="sourcePoint" />
            <mxPoint x="50" y="960" as="targetPoint" />
          </mxGeometry>
        </mxCell>
        
      </root>
    </mxGraphModel>
  </diagram>
</mxfile>